<svg width="32" height="32" xmlns="http://www.w3.org/2000/svg">

 <title/>
 <g>
  <title>background</title>
  <rect fill="none" id="canvas_background" height="402" width="582" y="-1" x="-1"/>
 </g>
 <g>
  <title>Layer 1</title>
  <path fill="#050404" id="svg_1" d="m29,28l-25,0l0,-25a1,1 0 0 0 -2,0l0,26a1,1 0 0 0 1,1l26,0a1,1 0 0 0 0,-2z" class="cls-1"/>
  <path fill="#0c0808" id="svg_2" d="m7,23a1,1 0 0 0 0.66,-0.25l8.34,-7.38l2.33,2.34a1,1 0 0 0 1.42,0l6.25,-6.3l0,2.59a1,1 0 0 0 2,0l0,-5a1,1 0 0 0 -1,-1l-5,0a1,1 0 0 0 0,2l2.59,0l-5.59,5.59l-2.29,-2.3a1,1 0 0 0 -1.37,0l-9,8a1,1 0 0 0 -0.09,1.41a1,1 0 0 0 0.75,0.3z" class="cls-1"/>
 </g>
</svg>